<svg width="1440" height="1024" viewBox="0 0 1440 1024" fill="none" xmlns="http://www.w3.org/2000/svg">
<path fill-rule="evenodd" clip-rule="evenodd" d="M1376.91 -81.7499C1533.99 -235.163 1814.4 -191.499 2018.23 -56.121C2207.41 69.5266 2287.72 326.802 2343.19 560.018C2385.94 739.777 2321.72 895.754 2284.74 1064.47C2243.81 1251.18 2262.86 1486.89 2119.51 1580.46C1967.51 1679.69 1754.66 1626.69 1578.78 1525.3C1413.23 1429.87 1269.71 1260 1219.91 1061.85C1176.18 887.889 1323.13 768.567 1346.26 600.143C1377.91 369.572 1227.71 63.9565 1376.91 -81.7499Z" fill="#3660F8"/>
<path fill-rule="evenodd" clip-rule="evenodd" d="M1417.39 915.505C1580.66 1062.31 1555.27 1344.96 1433.39 1557.14C1320.27 1754.07 1068.75 1850.89 839.618 1921.36C663.009 1975.68 503.196 1921.71 332.439 1895.74C143.471 1867.01 -90.5116 1901.29 -193.18 1764.31C-302.053 1619.06 -262.968 1403.22 -173.194 1221.15C-88.6906 1049.76 71.5113 895.523 266.015 832.978C436.777 778.068 565.376 916.973 734.944 929.127C967.083 945.766 1262.32 776.071 1417.39 915.505Z" fill="#3660F8"/>
</svg>
