<svg width="24" height="20" viewBox="0 0 24 20" fill="none" xmlns="http://www.w3.org/2000/svg">
<path d="M18.4722 9.16663H4.86107C3.78718 9.16663 2.91663 9.91282 2.91663 10.8333V16.6666C2.91663 17.5871 3.78718 18.3333 4.86107 18.3333H18.4722C19.5461 18.3333 20.4166 17.5871 20.4166 16.6666V10.8333C20.4166 9.91282 19.5461 9.16663 18.4722 9.16663Z" stroke="black" stroke-linecap="round" stroke-linejoin="round"/>
<path d="M6.80551 9.16663V5.83329C6.80551 4.72822 7.31766 3.66842 8.2293 2.88701C9.14093 2.10561 10.3774 1.66663 11.6666 1.66663C12.9559 1.66663 14.1923 2.10561 15.1039 2.88701C16.0156 3.66842 16.5277 4.72822 16.5277 5.83329V9.16663" stroke="black" stroke-linecap="round" stroke-linejoin="round"/>
</svg>
