<svg width="28" height="28" viewBox="0 0 28 28" fill="none" xmlns="http://www.w3.org/2000/svg">
<rect width="28" height="28" rx="8" fill="#3660F8"/>
<path d="M19.2143 15.2857H15.2857V19.2143C15.2857 19.4227 15.2029 19.6225 15.0556 19.7699C14.9082 19.9172 14.7084 20 14.5 20C14.2916 20 14.0918 19.9172 13.9444 19.7699C13.7971 19.6225 13.7143 19.4227 13.7143 19.2143V15.2857H9.78571C9.57733 15.2857 9.37748 15.2029 9.23013 15.0556C9.08278 14.9082 9 14.7084 9 14.5C9 14.2916 9.08278 14.0918 9.23013 13.9444C9.37748 13.7971 9.57733 13.7143 9.78571 13.7143H13.7143V9.78571C13.7143 9.57733 13.7971 9.37748 13.9444 9.23013C14.0918 9.08278 14.2916 9 14.5 9C14.7084 9 14.9082 9.08278 15.0556 9.23013C15.2029 9.37748 15.2857 9.57733 15.2857 9.78571V13.7143H19.2143C19.4227 13.7143 19.6225 13.7971 19.7699 13.9444C19.9172 14.0918 20 14.2916 20 14.5C20 14.7084 19.9172 14.9082 19.7699 15.0556C19.6225 15.2029 19.4227 15.2857 19.2143 15.2857Z" fill="white"/>
</svg>
